<?xml version="1.0" standalone="no"?>
<!DOCTYPE svg PUBLIC "-//W3C//DTD SVG 20010904//EN"
 "http://www.w3.org/TR/2001/REC-SVG-20010904/DTD/svg10.dtd">
<svg version="1.0" xmlns="http://www.w3.org/2000/svg"
 width="260.000000pt" height="260.000000pt" viewBox="0 0 260.000000 260.000000"
 preserveAspectRatio="xMidYMid meet">
<metadata>
Created by potrace 1.11, written by Peter Selinger 2001-2013
</metadata>
<g transform="translate(0.000000,260.000000) scale(0.100000,-0.100000)"
fill="#000000" stroke="none">
<path d="M1257 2329 c-22 -13 -47 -61 -47 -90 0 -12 12 -38 27 -58 l28 -36 0
-217 0 -217 -100 -3 -100 -3 -3 -31 c-3 -31 -5 -32 -48 -31 -24 0 -44 3 -45 6
-7 44 -3 141 5 144 6 2 59 3 119 2 65 0 107 4 108 10 0 5 1 54 1 108 l1 98
-47 59 c-36 47 -45 66 -40 84 8 32 -22 93 -49 100 -43 11 -74 6 -96 -18 -30
-32 -35 -71 -14 -106 18 -31 26 -35 77 -44 16 -3 29 -6 31 -8 1 -2 17 -24 36
-49 30 -40 34 -53 34 -105 l0 -59 -113 -1 c-62 -1 -115 -4 -119 -7 -3 -3 -6
-52 -7 -109 l-1 -102 -38 -2 c-30 -2 -46 4 -75 29 -44 38 -52 48 -46 59 8 13
-24 76 -44 87 -68 37 -144 -23 -127 -99 9 -40 55 -70 99 -64 26 4 39 -3 79
-39 l48 -43 135 1 134 0 0 -35 0 -35 -212 0 -213 1 -29 27 c-38 35 -84 36
-125 1 -51 -43 -38 -120 26 -153 35 -18 60 -13 96 19 l35 30 211 0 211 0 0
-34 0 -33 -134 0 -133 0 -52 -43 c-43 -37 -59 -44 -89 -42 -79 4 -121 -84 -67
-142 51 -55 148 -21 148 53 0 47 65 103 122 105 l43 1 -2 -103 c0 -60 3 -107
9 -110 6 -4 57 -7 115 -8 58 -1 107 -2 110 -3 3 0 5 -27 5 -59 0 -53 -4 -64
-40 -110 -30 -40 -45 -52 -66 -52 -16 0 -40 -10 -55 -23 -71 -62 -3 -177 86
-145 38 13 64 59 55 99 -5 24 0 37 32 76 21 27 42 51 47 54 5 4 9 57 10 118
l1 111 -30 1 c-16 0 -69 1 -117 0 -59 0 -88 4 -90 12 -4 10 -3 120 1 137 1 3
21 6 46 6 44 0 45 -1 45 -33 0 -37 -3 -36 128 -33 63 1 72 -1 73 -17 1 -10 2
-112 3 -227 1 -180 -1 -210 -15 -220 -57 -40 -48 -130 15 -160 95 -44 177 74
104 151 l-26 28 1 220 2 220 55 2 c30 0 76 2 102 2 46 1 47 1 43 31 -2 17 0
30 3 31 54 6 81 5 91 -1 8 -4 11 -31 9 -76 l-3 -69 -117 0 -118 1 0 -111 0
-111 45 -53 c41 -48 44 -56 39 -91 -8 -46 14 -84 58 -99 56 -20 118 28 118 90
0 32 -53 79 -89 79 -17 0 -31 3 -31 8 0 4 -16 25 -35 47 -32 37 -35 45 -35
106 l0 66 103 1 c56 0 110 0 120 1 15 1 17 12 16 100 0 55 2 104 5 110 12 19
78 1 115 -31 27 -24 36 -40 37 -65 3 -86 121 -117 159 -43 22 42 19 71 -10
103 -20 21 -35 27 -68 27 -35 0 -49 7 -85 40 -24 22 -49 40 -55 41 -7 0 -70 2
-141 2 l-130 2 0 30 0 30 222 3 223 2 23 -27 c34 -39 98 -39 132 0 78 91 -48
217 -130 130 l-26 -28 -213 1 c-116 1 -217 2 -223 3 -13 1 -14 52 -2 61 4 3
66 5 137 5 l130 -2 51 45 c36 32 57 43 71 39 52 -14 109 37 105 91 -7 88 -133
112 -166 31 -7 -16 -9 -36 -6 -45 4 -11 -7 -28 -35 -53 -34 -29 -51 -36 -85
-37 l-44 -1 0 111 0 111 -115 -1 -115 -2 -1 47 c-2 72 1 84 29 120 15 19 30
39 33 43 3 5 21 11 39 13 40 5 78 39 83 75 9 53 -48 111 -100 102 -12 -2 -33
-15 -48 -30 -22 -22 -26 -33 -23 -67 4 -35 -1 -47 -39 -96 l-43 -55 0 -110 0
-110 114 1 114 1 4 -56 c5 -92 3 -96 -47 -97 -27 -1 -45 4 -46 11 -1 6 -2 16
-4 21 -1 6 -3 16 -3 23 -2 9 -29 12 -101 12 l-99 0 0 222 c0 199 2 224 18 238
48 42 48 102 2 145 -28 26 -73 32 -105 14z m60 -70 c14 -14 6 -39 -12 -39 -18
0 -28 17 -21 35 6 18 18 19 33 4z m-270 -70 c15 -15 5 -39 -17 -39 -22 0 -32
24 -17 39 6 6 14 11 17 11 3 0 11 -5 17 -11z m551 -12 c4 -21 -27 -35 -38 -17
-12 19 0 42 19 38 9 -2 17 -11 19 -21z m-928 -433 c0 -20 -30 -30 -40 -13 -11
17 7 40 26 32 8 -3 14 -12 14 -19z m1308 -2 c3 -17 -2 -22 -17 -22 -14 0 -21
6 -21 18 0 38 33 41 38 4z m-507 -116 c1 -6 2 -82 2 -169 l2 -157 -171 0 -171
0 2 168 c1 92 3 167 4 168 0 0 75 0 166 0 108 0 165 -3 166 -10z m-905 -147
c10 -17 -23 -46 -37 -32 -7 7 -9 19 -6 27 7 18 33 21 43 5z m1537 -3 c8 -20
-20 -43 -35 -28 -14 14 -3 42 16 42 7 0 16 -6 19 -14z m-1435 -279 c4 -21 -27
-35 -38 -17 -12 19 0 42 19 38 9 -2 17 -11 19 -21z m1309 12 c14 -14 6 -39
-12 -39 -18 0 -28 17 -21 35 6 18 18 19 33 4z m-930 -430 c15 -15 5 -39 -17
-39 -22 0 -32 24 -17 39 6 6 14 11 17 11 3 0 11 -5 17 -11z m552 -2 c12 -15
-3 -37 -25 -37 -17 0 -24 26 -11 39 14 14 22 14 36 -2z m-273 -96 c-10 -15
-46 -14 -46 2 0 7 5 18 12 25 10 10 15 9 26 -2 8 -8 11 -19 8 -25z"/>
<path d="M1199 1560 c0 -8 -1 -55 -1 -105 l-1 -90 106 -2 107 -1 1 29 c0 16 0
54 0 84 0 113 13 101 -106 101 -87 0 -105 -3 -106 -16z"/>
<path d="M917 520 c-1 -8 -3 -60 -3 -115 l1 -100 46 -3 c33 -2 51 2 63 13 17
18 21 71 7 94 -5 7 -4 25 2 41 8 21 8 36 0 53 -10 21 -20 26 -62 28 -38 3 -51
0 -54 -11z m77 -35 c7 -20 -3 -45 -19 -45 -7 0 -15 14 -17 30 -4 23 -1 30 13
30 9 0 19 -7 23 -15z m1 -120 c0 -37 -30 -48 -37 -13 -6 33 1 50 21 46 10 -2
16 -13 16 -33z"/>
<path d="M1073 533 c-10 -3 -13 -37 -13 -119 l0 -114 55 0 c42 0 55 3 55 15 0
13 -23 20 -56 16 -7 -1 -11 31 -11 95 0 94 -6 116 -30 107z"/>
<path d="M1554 528 c-8 -13 6 -28 24 -28 15 0 17 -12 17 -100 0 -94 1 -100 20
-100 19 0 21 6 20 98 0 93 1 97 23 100 35 5 27 32 -10 33 -18 0 -46 2 -61 3
-16 1 -31 -2 -33 -6z"/>
<path d="M1177 436 c2 -114 11 -136 58 -136 56 0 65 18 65 131 0 92 -1 99 -20
99 -18 0 -20 -8 -22 -97 -2 -79 -6 -98 -18 -98 -12 0 -16 19 -18 98 -3 93 -4
97 -25 97 -21 0 -22 -3 -20 -94z"/>
<path d="M1325 418 l0 -113 54 0 c64 0 84 22 25 27 -35 3 -38 5 -39 36 -1 31
6 37 43 33 6 -1 12 7 12 19 0 15 -6 20 -28 20 -25 0 -29 4 -27 28 1 23 6 28
35 32 18 3 35 11 38 18 3 9 -13 12 -55 12 l-59 0 1 -112z"/>
<path d="M1500 516 c0 -9 7 -12 20 -9 11 3 20 9 20 14 0 5 -9 9 -20 9 -11 0
-20 -6 -20 -14z"/>
<path d="M1499 473 c-1 -27 -1 -114 0 -145 1 -21 6 -28 21 -28 19 0 20 7 20
95 0 88 -1 95 -20 95 -12 0 -20 -7 -21 -17z"/>
</g>
</svg>
